<?xml version="1.0" standalone="no"?>
<!DOCTYPE svg PUBLIC "-//W3C//DTD SVG 20010904//EN"
 "http://www.w3.org/TR/2001/REC-SVG-20010904/DTD/svg10.dtd">
<svg version="1.0" xmlns="http://www.w3.org/2000/svg"
 width="500.000000pt" height="500.000000pt" viewBox="0 0 500.000000 500.000000"
 preserveAspectRatio="xMidYMid meet">

<g transform="translate(0.000000,500.000000) scale(0.100000,-0.100000)"
fill="#000000" stroke="none">
<path d="M2963 4240 l-49 -150 98 -32 c54 -17 100 -29 102 -27 2 2 6 13 10 25
6 19 0 23 -59 39 -71 19 -69 15 -44 83 l9 22 52 -20 c28 -11 53 -18 55 -17 1
2 4 14 5 26 3 19 -4 25 -38 36 -62 18 -64 20 -51 61 12 39 8 38 95 12 37 -11
44 -10 52 2 15 24 11 40 -10 40 -11 0 -49 11 -86 25 -36 14 -72 25 -79 25 -8
0 -33 -61 -62 -150z"/>
<path d="M1959 4301 c-16 -16 -29 -38 -29 -48 -1 -14 -4 -12 -15 8 -14 25 -17
26 -55 17 -22 -6 -40 -14 -40 -18 0 -21 14 -40 29 -40 12 0 23 -19 39 -67 19
-58 20 -69 7 -76 -17 -9 -18 -16 -7 -35 7 -10 22 -8 75 8 59 18 67 24 67 45 0
22 -3 24 -29 19 -31 -7 -41 10 -41 74 0 58 32 95 43 51 4 -14 12 -19 24 -17
19 4 19 7 8 71 -8 47 -34 50 -76 8z"/>
<path d="M2462 4218 c-20 -20 -14 -56 13 -74 23 -15 27 -15 50 0 27 18 31 36
15 67 -12 22 -59 26 -78 7z"/>
<path d="M3205 4120 l-55 -110 30 -15 29 -15 35 62 c19 35 38 71 41 81 9 21
60 23 69 2 3 -8 -10 -43 -28 -77 -51 -96 -52 -104 -18 -122 l28 -15 47 95 c26
52 47 103 47 113 0 30 -49 63 -87 59 -25 -3 -33 0 -33 12 0 9 -11 22 -25 28
-25 11 -26 9 -80 -98z"/>
<path d="M1614 4166 c-29 -29 -34 -41 -34 -77 2 -136 126 -190 224 -99 39 37
39 37 17 49 -19 10 -26 8 -52 -13 -34 -29 -70 -33 -89 -11 -16 19 -19 16 60
55 36 18 67 34 69 36 9 8 -41 72 -64 82 -49 23 -94 15 -131 -22z m106 -36 c9
-17 5 -22 -29 -39 -44 -20 -51 -19 -51 14 0 44 60 63 80 25z"/>
<path d="M1411 4044 c-17 -14 -31 -35 -31 -46 0 -15 -3 -18 -13 -10 -9 8 -19
6 -36 -7 l-24 -18 44 -63 c24 -34 53 -75 64 -90 11 -15 29 -40 39 -56 11 -16
29 -39 39 -51 l20 -23 25 25 24 24 -31 43 -32 43 27 7 c72 19 86 91 34 170
-27 41 -79 78 -108 78 -6 0 -24 -12 -41 -26z m77 -78 c42 -48 49 -74 25 -98
-25 -24 -40 -17 -82 38 -30 39 -32 48 -23 69 16 35 45 31 80 -9z"/>
<path d="M3479 4041 c-18 -15 -23 -28 -23 -60 1 -34 -2 -41 -18 -41 -20 0 -39
-36 -30 -60 3 -8 24 -31 46 -51 27 -25 38 -40 33 -52 -3 -9 -10 -17 -15 -17
-21 0 -77 48 -80 68 -4 29 -41 50 -53 31 -15 -23 0 -62 34 -93 87 -77 187 -73
187 9 0 21 -12 39 -45 69 -25 23 -45 47 -45 54 0 17 7 15 40 -8 45 -32 81 -35
113 -10 20 16 27 30 27 56 0 34 1 35 22 20 30 -21 35 -20 40 9 4 21 1 26 -21
31 -14 4 -49 19 -77 35 -60 34 -102 37 -135 10z m106 -45 c16 -12 18 -19 10
-43 -8 -22 -17 -28 -40 -28 -25 0 -31 4 -33 26 -3 24 19 59 37 59 4 0 16 -6
26 -14z"/>
<path d="M3866 3924 c-19 -18 -19 -20 -6 -45 14 -26 56 -25 70 2 9 16 8 25 -6
40 -21 23 -37 24 -58 3z"/>
<path d="M3746 3881 c-16 -18 -16 -19 9 -37 l25 -19 -49 -52 c-26 -29 -52 -53
-57 -53 -4 0 -18 10 -32 23 -23 22 -24 22 -38 2 -13 -18 -9 -24 54 -88 63 -63
71 -68 92 -57 l22 12 -27 28 -26 27 28 24 c16 13 47 45 70 70 l42 45 -48 48
c-46 45 -48 46 -65 27z"/>
<path d="M1191 3862 c-35 -19 -71 -72 -71 -105 0 -32 39 -91 75 -114 54 -36
100 -31 146 16 29 29 39 47 39 71 0 50 -37 107 -85 130 -51 25 -61 25 -104 2z
m70 -65 c45 -30 68 -71 53 -94 -18 -29 -49 -27 -88 7 -44 39 -53 65 -30 91 22
24 24 24 65 -4z"/>
<path d="M3879 3636 c-41 -30 -82 -61 -93 -68 -18 -13 -18 -15 -2 -46 l17 -33
29 23 c99 79 117 89 144 78 14 -5 26 -16 26 -25 0 -8 -34 -40 -75 -71 -41 -31
-75 -59 -75 -63 1 -3 9 -16 20 -29 l19 -23 76 56 c41 31 83 67 92 82 15 23 15
28 2 52 -8 14 -29 33 -46 42 -18 9 -30 19 -26 23 7 7 -17 56 -27 56 -4 0 -40
-24 -81 -54z"/>
<path d="M860 3625 c-40 -54 -41 -57 -23 -70 16 -13 21 -11 43 15 l25 28 84
-63 c106 -81 131 -92 171 -75 30 13 60 54 60 84 0 25 -34 24 -56 -2 -24 -29
-30 -27 -139 53 -38 28 -82 59 -97 69 l-26 17 -42 -56z"/>
<path d="M850 3407 c-74 -58 -65 -158 18 -205 59 -33 107 -29 147 11 36 36 63
113 46 130 -15 15 -41 0 -41 -23 0 -29 -54 -82 -74 -74 -22 8 -21 12 19 86
l34 65 -25 12 c-33 14 -105 14 -124 -2z m70 -57 c0 -6 -7 -26 -15 -46 -13 -31
-17 -34 -35 -24 -19 10 -28 58 -13 73 10 11 63 8 63 -3z"/>
<path d="M4014 3405 c-35 -16 -74 -70 -74 -103 0 -38 32 -102 61 -122 l28 -21
11 21 c10 18 7 25 -14 47 -29 29 -34 74 -11 93 9 7 17 11 18 9 2 -2 18 -33 37
-69 18 -36 34 -67 36 -68 7 -9 63 33 78 58 29 50 13 120 -36 154 -27 19 -92
19 -134 1z m124 -57 c18 -18 14 -56 -8 -68 -17 -9 -22 -5 -39 29 -11 21 -17
41 -14 45 11 10 48 7 61 -6z"/>
<path d="M730 3170 c-7 -17 -10 -33 -7 -36 3 -3 40 -28 84 -55 l78 -50 -99 3
c-91 3 -100 1 -107 -17 -17 -44 -15 -45 120 -45 128 0 129 0 135 24 3 13 8 31
11 39 4 9 -25 37 -87 84 -121 91 -114 88 -128 53z"/>
<path d="M4115 3146 c-71 -31 -87 -122 -35 -194 17 -23 32 -42 35 -42 2 0 9 9
15 20 9 16 7 26 -9 47 -26 33 -27 65 -1 88 11 10 22 16 23 14 2 -2 14 -37 27
-77 20 -65 25 -72 44 -66 94 28 123 128 56 196 -24 23 -37 28 -77 28 -26 -1
-62 -7 -78 -14z m133 -58 c7 -7 12 -19 12 -27 0 -15 -28 -51 -41 -51 -8 0 -29
55 -29 76 0 17 42 18 58 2z"/>
<path d="M694 2886 c-43 -19 -64 -53 -64 -104 0 -77 50 -122 135 -122 38 0 52
6 82 34 35 32 37 38 38 94 0 67 -5 77 -34 67 -16 -5 -19 -12 -14 -40 7 -42
-18 -85 -48 -85 -17 0 -20 5 -15 28 16 86 17 125 4 133 -19 12 -48 10 -84 -5z
m42 -87 c-3 -17 -6 -38 -6 -45 0 -8 -6 -14 -14 -14 -18 0 -46 27 -46 45 0 20
29 45 52 45 18 0 20 -4 14 -31z"/>
<path d="M4303 2881 c-6 -24 -16 -28 -92 -37 -50 -5 -61 -4 -61 8 0 11 -7 14
-26 10 -16 -3 -23 -9 -20 -18 3 -8 8 -36 12 -63 3 -26 9 -54 13 -60 12 -19 41
-1 41 24 0 48 125 39 143 -10 5 -10 0 -15 -13 -15 -15 0 -20 -7 -20 -26 0 -24
3 -26 31 -20 17 3 40 6 50 6 14 0 19 7 19 28 0 32 -25 72 -46 72 -21 0 -17 18
7 25 15 5 19 12 15 28 -3 12 -6 32 -6 45 0 28 -39 31 -47 3z"/>
<path d="M634 2624 c-12 -3 -36 -18 -55 -33 -33 -28 -34 -31 -38 -115 l-3 -86
156 0 156 0 0 73 c0 83 -13 114 -57 140 -32 18 -119 30 -159 21z m152 -99 c8
-10 14 -29 14 -42 0 -23 -2 -23 -106 -23 l-105 0 3 32 c4 45 36 60 117 55 48
-2 67 -8 77 -22z"/>
<path d="M4132 2274 c-27 -18 -28 -45 -4 -67 22 -20 53 -22 70 -5 19 19 15 66
-7 78 -26 13 -33 13 -59 -6z"/>
<path d="M862 2069 c-11 -18 -11 -23 2 -32 23 -18 35 -59 23 -84 -20 -44 -35
-34 -58 35 -12 37 -25 71 -30 76 -12 13 -66 -12 -89 -42 -38 -48 -16 -147 38
-171 59 -28 149 -2 182 51 27 42 21 95 -14 149 -30 45 -36 47 -54 18z m-64
-118 c16 -51 16 -51 -13 -51 -15 0 -31 9 -41 25 -16 24 -16 27 1 45 27 29 40
25 53 -19z"/>
<path d="M4017 1856 c-22 -32 -21 -39 3 -61 24 -22 25 -34 3 -80 -11 -23 -22
-34 -32 -31 -9 2 -25 7 -37 10 -16 5 -24 -1 -37 -28 -20 -42 -30 -38 148 -66
72 -11 138 -23 147 -26 12 -4 23 6 39 37 l21 43 -68 63 c-38 35 -92 86 -120
114 l-51 50 -16 -25z m146 -183 c41 -37 40 -38 -35 -22 -68 14 -75 22 -54 54
19 29 17 30 89 -32z"/>
<path d="M987 1789 c-14 -8 -15 -14 -6 -30 8 -17 7 -23 -8 -35 -28 -21 -81
-28 -111 -14 -26 11 -26 12 -8 25 22 16 15 45 -10 45 -28 0 -84 -23 -84 -35 0
-12 29 -57 44 -67 6 -4 22 -8 35 -8 23 0 23 -1 7 -19 -16 -17 -16 -24 -5 -55
7 -20 18 -36 24 -36 18 0 36 17 33 31 -4 17 124 87 130 71 4 -14 21 -15 40 -4
10 7 6 22 -18 68 -39 73 -41 75 -63 63z"/>
<path d="M1050 1580 c-24 -22 -52 -42 -61 -45 -25 -8 -52 -54 -51 -86 1 -32
34 -86 70 -113 24 -18 25 -18 38 -1 12 16 10 22 -16 52 -31 35 -38 67 -19 79
7 4 22 -7 36 -25 65 -83 163 -71 163 20 0 29 -6 43 -31 63 -17 14 -37 26 -45
26 -7 0 -13 8 -12 18 5 64 -11 67 -72 12z m90 -75 c34 -41 -28 -76 -64 -36
-15 17 -16 23 -6 36 16 19 54 19 70 0z"/>
<path d="M3853 1568 c-89 -122 -85 -113 -63 -133 20 -18 21 -18 35 1 8 10 15
22 15 27 0 4 5 7 11 7 15 0 168 -113 169 -124 0 -5 -8 -18 -17 -29 -17 -18
-17 -19 2 -33 10 -8 21 -14 24 -14 3 0 32 37 65 82 55 76 58 82 40 95 -24 18
-29 17 -44 -12 -7 -14 -17 -25 -20 -25 -4 0 -24 14 -45 30 -21 17 -41 30 -44
30 -3 1 -24 16 -45 34 -39 33 -39 35 -23 59 15 23 15 26 -3 42 -17 16 -20 14
-57 -37z"/>
<path d="M3705 1438 c-11 -6 -22 -12 -23 -14 -5 -4 131 -394 145 -417 3 -5 34
5 50 17 1 1 -16 54 -38 117 -22 63 -53 150 -68 195 -38 110 -41 115 -66 102z"/>
<path d="M1214 1379 c-22 -16 -65 -50 -96 -73 l-57 -43 23 -22 24 -22 71 61
c39 34 71 60 71 58 0 -3 -20 -31 -44 -64 l-45 -59 21 -22 20 -22 52 38 c28 20
58 41 65 46 21 12 -21 -44 -59 -80 -49 -46 -53 -59 -26 -84 l23 -22 44 62 c24
34 56 76 72 94 33 40 33 46 3 74 l-24 23 -47 -33 c-96 -69 -92 -66 -75 -44 8
11 31 41 52 66 l37 46 -27 26 c-16 15 -31 27 -34 27 -3 0 -23 -14 -44 -31z"/>
<path d="M3550 1232 c-22 -17 -22 -19 -6 -48 9 -16 32 -49 51 -74 61 -79 59
-86 -6 -27 -35 31 -66 57 -69 57 -3 -1 -13 -7 -23 -14 -17 -14 -17 -16 8 -66
30 -60 50 -109 38 -95 -5 6 -29 36 -54 68 -85 112 -73 103 -101 81 l-25 -19
81 -99 c45 -54 90 -110 102 -124 l21 -25 30 22 31 23 -44 86 c-24 47 -42 87
-40 89 2 2 25 -18 52 -44 88 -87 88 -87 118 -68 14 10 26 22 26 27 0 6 -24 47
-54 91 -29 45 -67 103 -83 130 -30 47 -31 47 -53 29z"/>
<path d="M1424 1208 c-3 -11 -4 -21 -2 -22 1 -1 15 -10 31 -19 15 -10 27 -23
27 -30 0 -8 -17 -36 -38 -64 l-38 -51 -31 19 c-28 18 -31 18 -44 3 -12 -14
-10 -20 14 -40 26 -23 27 -25 13 -46 -22 -30 -21 -34 15 -48 27 -12 32 -11 46
9 15 22 16 22 35 4 19 -17 20 -17 34 2 13 17 12 21 -7 35 l-21 16 37 48 c36
48 55 85 55 111 0 24 -48 71 -84 82 -32 10 -36 9 -42 -9z"/>
<path d="M3237 1033 c-77 -40 -87 -48 -81 -67 10 -31 8 -31 75 -2 49 21 64 24
71 14 5 -7 32 -59 60 -115 l51 -101 32 15 c31 15 32 17 21 42 -32 71 -131 261
-136 260 -3 0 -45 -21 -93 -46z"/>
<path d="M1689 967 c-32 -63 -40 -72 -60 -68 -50 7 -63 5 -67 -10 -2 -10 8
-21 28 -29 33 -14 36 -26 16 -52 -17 -23 -37 -23 -68 2 -23 17 -27 18 -47 4
l-22 -16 41 -30 c40 -30 106 -46 125 -31 6 4 21 23 33 40 20 29 25 31 43 20
16 -10 21 -9 29 3 15 23 12 37 -10 43 -23 6 -20 18 21 88 43 73 45 87 14 99
-14 5 -29 10 -33 10 -4 0 -23 -33 -43 -73z"/>
<path d="M1878 927 c-46 -37 -63 -116 -39 -175 13 -31 66 -62 107 -62 83 0
147 108 114 194 -23 61 -130 87 -182 43z m112 -42 c26 -31 -18 -145 -55 -145
-27 0 -45 42 -35 83 14 66 61 98 90 62z"/>
<path d="M2155 877 c-46 -21 -57 -40 -53 -94 3 -47 4 -49 65 -88 46 -29 63
-46 63 -62 0 -34 -41 -40 -86 -13 -33 19 -39 20 -52 6 -13 -13 -13 -17 -1 -32
40 -49 140 -58 188 -18 54 45 37 115 -37 153 -20 10 -46 29 -57 41 -43 48 40
82 98 39 22 -16 34 -19 46 -12 30 19 24 41 -18 63 -54 27 -118 34 -156 17z"/>
<path d="M2742 874 c-24 -17 -29 -53 -10 -72 19 -19 66 -15 78 7 14 28 13 38
-10 61 -24 24 -29 24 -58 4z"/>
</g>
</svg>
